<svg xmlns="http://www.w3.org/2000/svg" xmlns:xlink="http://www.w3.org/1999/xlink" width="500" zoomAndPan="magnify" viewBox="0 0 375 374.999991" height="500" preserveAspectRatio="xMidYMid meet" version="1.0"><defs><clipPath id="c54c5eb34c"><path d="M 37.5 0 L 337.5 0 C 347.445312 0 356.984375 3.949219 364.015625 10.984375 C 371.050781 18.015625 375 27.554688 375 37.5 L 375 337.5 C 375 347.445312 371.050781 356.984375 364.015625 364.015625 C 356.984375 371.050781 347.445312 375 337.5 375 L 37.5 375 C 27.554688 375 18.015625 371.050781 10.984375 364.015625 C 3.949219 356.984375 0 347.445312 0 337.5 L 0 37.5 C 0 27.554688 3.949219 18.015625 10.984375 10.984375 C 18.015625 3.949219 27.554688 0 37.5 0 Z M 37.5 0 " clip-rule="nonzero"/></clipPath><clipPath id="7d6a50c880"><path d="M 106 57 L 289 57 L 289 257 L 106 257 Z M 106 57 " clip-rule="nonzero"/></clipPath><clipPath id="b59aa3e32e"><path d="M 166.140625 18.957031 L 290.308594 61.90625 L 214.882812 279.953125 L 90.71875 237.003906 Z M 166.140625 18.957031 " clip-rule="nonzero"/></clipPath><clipPath id="6c9b526176"><path d="M 281.554688 71.289062 C 264.832031 69.15625 259.015625 69.683594 254.859375 70.230469 C 251.796875 70.597656 250.15625 70.984375 246.777344 71.800781 C 241.09375 73.085938 231.320312 75.417969 223.960938 78.113281 C 216.648438 80.660156 209.476562 83.734375 202.839844 87.3125 C 196.398438 90.796875 190.585938 94.980469 184.777344 99.160156 C 179.109375 103.152344 173.660156 106.980469 168.460938 111.6875 C 162.828125 116.722656 156.941406 123.417969 152.472656 128.539062 C 148.917969 132.625 146.492188 135.277344 143.5 139.796875 C 139.421875 145.847656 134.769531 154.476562 131.246094 162.144531 C 127.769531 169.671875 124.085938 178.714844 122.324219 185.40625 C 121.0625 190.207031 120.804688 193.929688 120.378906 198.144531 C 120 202.457031 119.496094 206.886719 119.832031 210.972656 C 120.117188 214.957031 120.777344 219.472656 122.074219 222.382812 C 123 224.527344 124.148438 225.558594 125.835938 227.332031 C 128.039062 229.917969 131.460938 233.5625 134.847656 235.925781 C 138.238281 238.289062 142.769531 240.332031 145.957031 241.4375 C 148.226562 242.21875 149.671875 242.402344 152.039062 242.667969 C 155.191406 242.964844 160.316406 242.832031 163.472656 242.652344 C 165.75 242.488281 166.960938 242.429688 169.171875 242.007812 C 172.429688 241.308594 177.257812 240.199219 180.8125 238.175781 C 184.535156 236.132812 188.535156 232.832031 191.035156 229.730469 C 193.128906 227.121094 193.742188 223.285156 195.398438 221.476562 C 196.550781 220.210938 197.699219 219.414062 199.078125 219.097656 C 200.410156 218.6875 202.1875 218.824219 203.511719 219.363281 C 204.761719 219.875 206.097656 221.289062 206.773438 222.316406 C 207.265625 222.960938 207.472656 223.511719 207.582031 224.34375 C 207.710938 225.578125 207.664062 227.542969 207.082031 228.773438 C 206.425781 229.972656 205.179688 231.289062 203.9375 231.890625 C 202.671875 232.5625 200.988281 232.855469 199.589844 232.53125 C 198.242188 232.300781 196.617188 231.261719 195.726562 230.398438 C 195.113281 229.871094 194.8125 229.367188 194.535156 228.558594 C 194.121094 227.464844 193.910156 225.324219 194.089844 224.117188 C 194.214844 223.289062 194.484375 222.746094 194.941406 222.113281 C 195.664062 221.171875 197.316406 219.839844 198.363281 219.328125 C 199.128906 218.957031 199.722656 218.84375 200.597656 218.832031 C 201.761719 218.914062 203.769531 219.53125 204.757812 220.113281 C 205.488281 220.523438 205.984375 220.933594 206.378906 221.625 C 207.054688 222.652344 207.625 224.675781 207.753906 225.910156 C 207.792969 226.714844 207.667969 227.070312 207.324219 228.0625 C 206.566406 230.261719 203.425781 235.441406 201.59375 237.984375 C 200.242188 239.820312 199.355469 240.78125 197.726562 242.28125 C 195.328125 244.386719 191.3125 247.285156 188.277344 249.171875 C 185.746094 250.753906 183.644531 252.011719 180.8125 253.09375 C 177.285156 254.335938 172.695312 255.445312 168.632812 255.945312 C 164.621094 256.542969 160.585938 256.496094 156.582031 256.378906 C 152.574219 256.261719 147.832031 255.972656 144.664062 255.273438 C 142.4375 254.820312 141.210938 254.238281 139.0625 253.335938 C 136.042969 251.972656 131.09375 249.308594 128.265625 247.617188 C 126.355469 246.480469 125.035156 245.707031 123.554688 244.480469 C 122.03125 243.15625 120.695312 241.742188 119.03125 239.898438 C 116.804688 237.382812 113.316406 233.476562 111.566406 230.730469 C 110.355469 228.722656 109.824219 227.507812 109.089844 225.269531 C 108.058594 222.058594 107.144531 217.136719 106.835938 212.984375 C 106.5 208.898438 106.808594 204.800781 107.070312 200.605469 C 107.402344 196.195312 107.984375 190.84375 108.738281 187.292969 C 109.191406 184.832031 109.441406 183.886719 110.347656 181.261719 C 112.164062 175.78125 116.585938 164.375 120.351562 156.472656 C 123.972656 148.757812 129.246094 139.472656 132.316406 134.5 C 133.957031 131.816406 134.5625 130.992188 136.535156 128.5 C 140.070312 124.007812 147.519531 115.554688 152.417969 110.34375 C 156.402344 106.167969 158.589844 103.511719 163.402344 99.464844 C 171.089844 93.074219 186.125 82.640625 195.648438 77.367188 C 202.546875 73.480469 208.574219 71.203125 214.433594 68.945312 C 219.414062 66.9375 223.675781 65.632812 228.597656 64.242188 C 233.714844 62.757812 239.851562 61.308594 244.417969 60.269531 C 247.839844 59.546875 250.003906 59.027344 253.472656 58.640625 C 258.269531 58.078125 265.203125 57.539062 270.488281 57.859375 C 275.226562 58.148438 280.910156 58.925781 283.863281 60.027344 C 285.46875 60.660156 286.53125 61.265625 287.324219 62.175781 C 287.933594 62.941406 288.28125 63.777344 288.367188 64.679688 C 288.519531 65.84375 288.214844 67.640625 287.609375 68.703125 C 286.90625 69.808594 285.402344 70.71875 284.308594 71.132812 C 283.402344 71.453125 281.554688 71.289062 281.554688 71.289062 " clip-rule="nonzero"/></clipPath><clipPath id="bb5cbcf90c"><path d="M 147 60 L 289 60 L 289 231 L 147 231 Z M 147 60 " clip-rule="nonzero"/></clipPath><clipPath id="9b822017d7"><path d="M 165.980469 43.921875 L 289.734375 61.308594 L 264.503906 240.902344 L 140.75 223.519531 Z M 165.980469 43.921875 " clip-rule="nonzero"/></clipPath><clipPath id="b99315c004"><path d="M 282.21875 72.152344 C 276.914062 72.164062 267.976562 74.316406 263.070312 75.824219 C 259.105469 77.085938 257.007812 78.003906 252.464844 80.167969 C 243.859375 84.257812 225.171875 94.359375 215.824219 100.542969 C 209.488281 104.652344 204.164062 108.597656 200.808594 111.988281 C 198.703125 114.042969 198.515625 115.378906 196.441406 117.738281 C 192.71875 122.136719 183.210938 129.964844 179.195312 135.386719 C 176.390625 139.15625 175.296875 142.109375 173.226562 146.058594 C 170.746094 150.785156 167.449219 156.988281 165.542969 161.945312 C 163.980469 166.042969 162.71875 170.179688 162.101562 173.503906 C 161.703125 175.792969 161.503906 177.207031 161.625 179.570312 C 161.890625 183.089844 163.046875 188.328125 164.371094 192.378906 C 165.726562 196.203125 167.199219 200.273438 169.65625 203.269531 C 172.050781 206.179688 175.566406 208.113281 178.984375 210.183594 C 182.671875 212.519531 187.761719 215.65625 191.132812 216.433594 C 193.332031 216.96875 196.46875 215.667969 196.894531 216.410156 C 197.234375 217.214844 193.511719 221.085938 193.4375 221.074219 C 193.371094 220.992188 194.605469 218.132812 195.644531 217.21875 C 196.691406 216.230469 198.300781 215.546875 199.679688 215.4375 C 201.132812 215.339844 202.9375 215.972656 204 216.5 C 204.777344 216.910156 205.179688 217.273438 205.679688 218.023438 C 206.371094 219.03125 207.183594 220.808594 207.21875 222.179688 C 207.242188 223.621094 206.703125 225.285156 205.867188 226.382812 C 205.097656 227.558594 203.371094 228.53125 202.320312 228.988281 C 201.515625 229.328125 200.902344 229.394531 200.085938 229.28125 C 198.886719 229.1875 196.996094 228.617188 195.902344 227.785156 C 194.816406 226.875 193.816406 225.371094 193.476562 224.035156 C 193.21875 222.632812 193.488281 220.703125 193.867188 219.621094 C 194.132812 218.824219 194.511719 218.273438 195.125 217.675781 C 195.992188 216.890625 197.582031 215.824219 198.980469 215.566406 C 200.304688 215.300781 202.214844 215.71875 203.375 216.109375 C 204.160156 216.445312 204.636719 216.816406 205.160156 217.421875 C 205.933594 218.363281 206.882812 220.238281 207.171875 221.414062 C 207.355469 222.273438 207.570312 222.910156 207.082031 223.671875 C 205.972656 225.636719 199.808594 229.621094 195.992188 230.371094 C 192.421875 231.003906 188.449219 229.613281 184.894531 228.507812 C 181.265625 227.394531 177.015625 225.28125 174.222656 223.601562 C 172.257812 222.492188 171.257812 221.519531 169.421875 220.050781 C 166.828125 218.019531 163.121094 215.300781 160.503906 212.359375 C 157.886719 209.417969 155.375 205.199219 153.808594 202.328125 C 152.722656 200.359375 152.253906 199.382812 151.527344 197.011719 C 150.277344 192.972656 148.265625 185.191406 147.933594 179.996094 C 147.691406 175.796875 148.105469 172.292969 148.945312 168.472656 C 149.742188 164.421875 151.167969 160.757812 152.90625 156.457031 C 155.078125 151.234375 158.414062 144.734375 161.097656 139.660156 C 163.441406 135.367188 164.738281 132.066406 167.816406 127.957031 C 172.183594 122.207031 182.070312 113.824219 185.792969 109.425781 C 187.613281 107.257812 187.527344 106.261719 189.472656 104.261719 C 193.292969 100.253906 201.222656 93.945312 209.058594 88.835938 C 219.3125 82.175781 236.25 73.191406 246.476562 68.875 C 253.078125 66.089844 258.398438 64.867188 263.519531 63.46875 C 267.609375 62.375 271.152344 61.433594 274.765625 61.035156 C 278.148438 60.675781 282.378906 60.210938 284.683594 61.0625 C 286.128906 61.570312 287.128906 62.542969 287.722656 63.6875 C 288.40625 64.765625 288.621094 66.464844 288.371094 67.714844 C 288.054688 68.882812 287.167969 70.347656 286.160156 71.039062 C 285.070312 71.796875 282.21875 72.152344 282.21875 72.152344 " clip-rule="nonzero"/></clipPath><clipPath id="db0e5b0eba"><path d="M 82 121 L 266 121 L 266 320 L 82 320 Z M 82 121 " clip-rule="nonzero"/></clipPath><clipPath id="317c3fe5a0"><path d="M 204.480469 359.011719 L 80.613281 315.214844 L 157.527344 97.6875 L 281.394531 141.488281 Z M 204.480469 359.011719 " clip-rule="nonzero"/></clipPath><clipPath id="473a7e461b"><path d="M 89.429688 305.890625 C 106.136719 308.136719 111.957031 307.652344 116.117188 307.132812 C 119.183594 306.785156 120.828125 306.410156 124.210938 305.621094 C 129.902344 304.371094 139.691406 302.105469 147.070312 299.460938 C 154.398438 296.960938 161.59375 293.9375 168.25 290.40625 C 174.71875 286.964844 180.554688 282.824219 186.394531 278.683594 C 192.089844 274.730469 197.566406 270.941406 202.796875 266.265625 C 208.464844 261.269531 214.394531 254.617188 218.898438 249.527344 C 222.484375 245.464844 224.929688 242.828125 227.949219 238.328125 C 232.070312 232.308594 236.777344 223.710938 240.355469 216.066406 C 243.886719 208.5625 247.628906 199.546875 249.4375 192.867188 C 250.730469 188.074219 251.011719 184.355469 251.46875 180.140625 C 251.878906 175.832031 252.410156 171.40625 252.105469 167.320312 C 251.84375 163.328125 251.214844 158.8125 249.941406 155.894531 C 249.03125 153.742188 247.886719 152.703125 246.210938 150.914062 C 244.027344 148.316406 240.632812 144.648438 237.257812 142.261719 C 233.886719 139.875 229.371094 137.800781 226.1875 136.675781 C 223.925781 135.875 222.480469 135.683594 220.113281 135.402344 C 216.964844 135.085938 211.839844 135.183594 208.683594 135.339844 C 206.402344 135.488281 205.191406 135.535156 202.976562 135.945312 C 199.714844 136.625 194.882812 137.699219 191.308594 139.695312 C 187.574219 141.71875 183.550781 144.988281 181.03125 148.074219 C 178.917969 150.667969 178.28125 154.5 176.609375 156.296875 C 175.449219 157.554688 174.296875 158.34375 172.914062 158.648438 C 171.578125 159.050781 169.804688 158.902344 168.484375 158.355469 C 167.238281 157.835938 165.910156 156.410156 165.242188 155.378906 C 164.753906 154.730469 164.550781 154.179688 164.449219 153.347656 C 164.328125 152.113281 164.386719 150.144531 164.980469 148.921875 C 165.640625 147.722656 166.898438 146.417969 168.140625 145.824219 C 169.410156 145.160156 171.101562 144.882812 172.496094 145.214844 C 173.84375 145.453125 175.460938 146.503906 176.34375 147.371094 C 176.953125 147.90625 177.253906 148.410156 177.523438 149.21875 C 177.929688 150.320312 178.128906 152.457031 177.941406 153.664062 C 177.804688 154.492188 177.535156 155.03125 177.074219 155.664062 C 176.34375 156.601562 174.683594 157.921875 173.632812 158.425781 C 172.863281 158.789062 172.269531 158.898438 171.390625 158.90625 C 170.230469 158.8125 168.226562 158.183594 167.242188 157.597656 C 166.511719 157.179688 166.023438 156.769531 165.632812 156.074219 C 164.964844 155.042969 164.40625 153.015625 164.285156 151.78125 C 164.253906 150.972656 164.378906 150.617188 164.730469 149.628906 C 165.503906 147.4375 168.679688 142.277344 170.53125 139.746094 C 171.890625 137.921875 172.785156 136.964844 174.425781 135.476562 C 176.835938 133.386719 180.875 130.519531 183.917969 128.652344 C 186.460938 127.085938 188.574219 125.84375 191.414062 124.777344 C 194.949219 123.5625 199.546875 122.484375 203.609375 122.011719 C 207.628906 121.441406 211.660156 121.515625 215.667969 121.660156 C 219.671875 121.804688 224.410156 122.125 227.578125 122.847656 C 229.796875 123.316406 231.019531 123.90625 233.164062 124.824219 C 236.175781 126.207031 241.105469 128.90625 243.921875 130.617188 C 245.824219 131.765625 247.136719 132.550781 248.609375 133.785156 C 250.125 135.117188 251.453125 136.542969 253.101562 138.398438 C 255.3125 140.929688 258.773438 144.859375 260.503906 147.617188 C 261.699219 149.632812 262.222656 150.851562 262.941406 153.09375 C 263.953125 156.3125 264.835938 161.238281 265.113281 165.394531 C 265.421875 169.480469 265.085938 173.578125 264.796875 177.773438 C 264.429688 182.179688 263.8125 187.527344 263.035156 191.070312 C 262.566406 193.53125 262.3125 194.476562 261.386719 197.089844 C 259.53125 202.5625 255.03125 213.9375 251.210938 221.8125 C 247.539062 229.503906 242.199219 238.753906 239.097656 243.703125 C 237.4375 246.375 236.828125 247.195312 234.839844 249.671875 C 231.269531 254.140625 223.765625 262.542969 218.832031 267.71875 C 214.820312 271.871094 212.613281 274.511719 207.769531 278.527344 C 200.042969 284.863281 184.933594 295.191406 175.375 300.402344 C 168.449219 304.238281 162.410156 306.476562 156.53125 308.695312 C 151.539062 310.667969 147.269531 311.945312 142.335938 313.300781 C 137.210938 314.75 131.0625 316.15625 126.492188 317.164062 C 123.0625 317.863281 120.894531 318.367188 117.425781 318.734375 C 112.625 319.261719 105.6875 319.753906 100.40625 319.398438 C 95.667969 319.074219 89.988281 318.257812 87.042969 317.136719 C 85.441406 316.492188 84.386719 315.878906 83.597656 314.964844 C 82.992188 314.195312 82.652344 313.359375 82.574219 312.457031 C 82.429688 311.289062 82.746094 309.492188 83.359375 308.4375 C 84.066406 307.335938 85.578125 306.4375 86.675781 306.03125 C 87.582031 305.714844 89.429688 305.890625 89.429688 305.890625 " clip-rule="nonzero"/></clipPath><clipPath id="4ea0aaa696"><path d="M 82 147 L 224 147 L 224 317 L 82 317 Z M 82 147 " clip-rule="nonzero"/></clipPath><clipPath id="891253850e"><path d="M 204.816406 334.046875 L 81.183594 315.816406 L 107.640625 136.398438 L 231.273438 154.628906 Z M 204.816406 334.046875 " clip-rule="nonzero"/></clipPath><clipPath id="2801d64167"><path d="M 88.773438 305.023438 C 94.074219 305.046875 103.027344 302.957031 107.945312 301.480469 C 111.917969 300.25 114.019531 299.347656 118.582031 297.214844 C 127.210938 293.179688 145.96875 283.207031 155.359375 277.089844 C 161.722656 273.023438 167.074219 269.113281 170.453125 265.742188 C 172.570312 263.707031 172.769531 262.371094 174.859375 260.027344 C 178.613281 255.652344 188.171875 247.886719 192.226562 242.496094 C 195.054688 238.746094 196.171875 235.800781 198.265625 231.863281 C 200.78125 227.15625 204.117188 220.976562 206.058594 216.03125 C 207.648438 211.945312 208.941406 207.8125 209.582031 204.496094 C 209.996094 202.207031 210.203125 200.796875 210.097656 198.433594 C 209.855469 194.910156 208.734375 189.664062 207.4375 185.609375 C 206.109375 181.773438 204.664062 177.691406 202.226562 174.679688 C 199.855469 171.753906 196.351562 169.796875 192.945312 167.703125 C 189.277344 165.339844 184.210938 162.167969 180.839844 161.367188 C 178.648438 160.816406 175.5 162.097656 175.082031 161.351562 C 174.746094 160.542969 178.496094 156.699219 178.570312 156.710938 C 178.632812 156.796875 177.378906 159.644531 176.335938 160.550781 C 175.28125 161.535156 173.667969 162.207031 172.285156 162.304688 C 170.832031 162.394531 169.035156 161.75 167.976562 161.214844 C 167.203125 160.796875 166.800781 160.433594 166.304688 159.679688 C 165.621094 158.667969 164.824219 156.882812 164.796875 155.515625 C 164.78125 154.070312 165.332031 152.410156 166.175781 151.320312 C 166.953125 150.148438 168.6875 149.1875 169.738281 148.738281 C 170.546875 148.402344 171.164062 148.339844 171.976562 148.460938 C 173.175781 148.5625 175.0625 149.144531 176.152344 149.988281 C 177.226562 150.902344 178.21875 152.414062 178.550781 153.753906 C 178.800781 155.152344 178.515625 157.082031 178.128906 158.164062 C 177.859375 158.957031 177.476562 159.507812 176.859375 160.097656 C 175.984375 160.878906 174.390625 161.933594 172.988281 162.179688 C 171.660156 162.441406 169.753906 162.007812 168.597656 161.609375 C 167.816406 161.265625 167.339844 160.894531 166.824219 160.285156 C 166.054688 159.339844 165.117188 157.457031 164.835938 156.277344 C 164.660156 155.417969 164.449219 154.78125 164.941406 154.019531 C 166.066406 152.0625 172.253906 148.125 176.078125 147.398438 C 179.65625 146.789062 183.613281 148.207031 187.164062 149.335938 C 190.785156 150.476562 195.019531 152.617188 197.800781 154.316406 C 199.757812 155.4375 200.75 156.417969 202.578125 157.902344 C 205.15625 159.949219 208.847656 162.691406 211.441406 165.652344 C 214.039062 168.613281 216.523438 172.847656 218.070312 175.726562 C 219.140625 177.707031 219.605469 178.683594 220.316406 181.0625 C 221.539062 185.109375 223.496094 192.902344 223.789062 198.101562 C 224.003906 202.304688 223.566406 205.800781 222.699219 209.617188 C 221.875 213.664062 220.425781 217.316406 218.65625 221.605469 C 216.449219 226.8125 213.066406 233.289062 210.351562 238.347656 C 207.976562 242.621094 206.65625 245.914062 203.550781 250.003906 C 199.144531 255.722656 189.203125 264.035156 185.449219 268.410156 C 183.613281 270.566406 183.695312 271.5625 181.734375 273.546875 C 177.886719 277.53125 169.914062 283.785156 162.042969 288.839844 C 151.746094 295.433594 134.746094 304.296875 124.492188 308.546875 C 117.871094 311.285156 112.539062 312.46875 107.410156 313.835938 C 103.3125 314.898438 99.765625 315.816406 96.148438 316.195312 C 92.761719 316.527344 88.527344 316.964844 86.230469 316.09375 C 84.789062 315.578125 83.796875 314.601562 83.207031 313.453125 C 82.535156 312.367188 82.332031 310.667969 82.589844 309.417969 C 82.914062 308.253906 83.8125 306.792969 84.820312 306.109375 C 85.917969 305.359375 88.773438 305.023438 88.773438 305.023438 " clip-rule="nonzero"/></clipPath></defs><g clip-path="url(#c54c5eb34c)"><rect x="-37.5" width="450" fill="#f5f5f5" y="-37.499999" height="449.999989" fill-opacity="1"/></g><g clip-path="url(#7d6a50c880)"><g clip-path="url(#b59aa3e32e)"><g clip-path="url(#6c9b526176)"><path fill="#1e1e1e" d="M 164.492188 15.558594 L 293.703125 60.253906 L 216.53125 283.351562 L 87.320312 238.652344 Z M 164.492188 15.558594 " fill-opacity="1" fill-rule="nonzero"/></g></g></g><g clip-path="url(#bb5cbcf90c)"><g clip-path="url(#9b822017d7)"><g clip-path="url(#b99315c004)"><path fill="#1e1e1e" d="M 163.816406 41.054688 L 292.601562 59.144531 L 266.738281 243.269531 L 137.949219 225.175781 Z M 163.816406 41.054688 " fill-opacity="1" fill-rule="nonzero"/></g></g></g><g clip-path="url(#db0e5b0eba)"><g clip-path="url(#317c3fe5a0)"><g clip-path="url(#473a7e461b)"><path fill="#000000" d="M 206.109375 362.421875 L 77.203125 316.839844 L 155.898438 94.28125 L 284.804688 139.859375 Z M 206.109375 362.421875 " fill-opacity="1" fill-rule="nonzero"/></g></g></g><g clip-path="url(#4ea0aaa696)"><g clip-path="url(#891253850e)"><g clip-path="url(#2801d64167)"><path fill="#000000" d="M 206.957031 336.929688 L 78.296875 317.957031 L 105.421875 134.015625 L 234.082031 152.988281 Z M 206.957031 336.929688 " fill-opacity="1" fill-rule="nonzero"/></g></g></g></svg>